<svg xmlns="http://www.w3.org/2000/svg" xmlns:xlink="http://www.w3.org/1999/xlink" width="373.509" height="267.092" viewBox="0 0 373.509 267.092"><defs><linearGradient id="a" x1="0.5" y1="1" x2="0.5" gradientUnits="objectBoundingBox"><stop offset="0" stop-color="gray" stop-opacity="0.251"/><stop offset="0.54" stop-color="gray" stop-opacity="0.122"/><stop offset="1" stop-color="gray" stop-opacity="0.102"/></linearGradient><linearGradient id="b" x1="0.5" y1="1" x2="0.5" xlink:href="#a"/></defs><g transform="translate(0.03 -0.003)"><path d="M443.609,219.607c-8.655,17.855-26.23,29.794-44.443,37.668a168.951,168.951,0,0,1-78.153,13.03q-7-.466-13.959-1.489a176.055,176.055,0,0,1-46.672-13.591q-6.43-2.9-12.6-6.323a161.2,161.2,0,0,1-19.7-12.88q-2.355-1.8-4.645-3.688c-1.059-.873-2.108-1.766-3.173-2.632a40.041,40.041,0,0,0-7.141-4.864,25.512,25.512,0,0,0-2.391-1.055c-8.17-3.108-17.591-1.935-26.1.489-6.47,1.844-12.776,4.368-19.239,6.17a63.849,63.849,0,0,1-8.766,1.863,46.652,46.652,0,0,1-19.7-1.73l-.544-.169q-1.368-.43-2.714-.941l-.544-.208q-1.3-.5-2.551-1.078l-.544-.248q-1.3-.606-2.551-1.28c-.3-.156-.6-.326-.889-.485a53.317,53.317,0,0,1-12.757-9.932c-.108-.107-.209-.218-.326-.326-.518-.56-1.026-1.13-1.518-1.714-.182-.215-.365-.43-.544-.652q-.876-1.069-1.691-2.186c-.081-.107-.16-.218-.238-.326a47.1,47.1,0,0,1-5.492-9.932c-.046-.107-.088-.218-.127-.326q-.652-1.678-1.189-3.411c-.147-.482-.287-.977-.41-1.459-.042-.143-.081-.29-.117-.433-1.8-7.079-2-14.438-2-21.754v-2.557c.052-11.835.235-23.872,1.981-35.544a1.484,1.484,0,0,1,.036-.241,111,111,0,0,1,2.381-11.669,86.083,86.083,0,0,1,4.01-11.825c4.017-9.447,9.857-18.044,16.343-26.012,16.337-20.05,37.762-36.882,62.839-43.183a92.475,92.475,0,0,1,78.85,17.07c6.646,5.29,12.617,11.555,20.08,15.61,6.515,3.531,14.141,4.994,21.119,2.215,5.766-2.3,9.519-3.437,15.995-3.088A134.069,134.069,0,0,1,363.032,82.7c.508.186,1.016.378,1.521.57,32.807,12.552,61.008,37.488,75.667,69.533q.583,1.27,1.13,2.56C450.092,175.783,453.251,199.71,443.609,219.607Z" transform="translate(-76.041 -40.04)" fill="#007bff" opacity="0.1"/><ellipse cx="28.758" cy="4.619" rx="28.758" ry="4.619" transform="translate(10.727 232.8)" fill="#007bff" opacity="0.1"/><ellipse cx="50.991" cy="4.952" rx="50.991" ry="4.952" transform="translate(246.483 257.192)" fill="#007bff" opacity="0.1"/><rect width="309.579" height="175.366" rx="12.49" transform="translate(38.13 35.103)" fill="url(#a)"/><rect width="308.631" height="172.317" rx="12.49" transform="translate(38.622 37.569)" fill="#fff"/><rect width="308.631" height="172.317" rx="12.49" transform="translate(38.622 37.569)" fill="#fff"/><rect width="308.631" height="172.317" rx="12.49" transform="translate(38.622 37.569)" fill="#fff" opacity="0.04"/><path d="M451.684,149.29h-305.5a1.567,1.567,0,0,0-1.567,1.567v6.623H453.238v-6.623a1.567,1.567,0,0,0-1.554-1.567Z" transform="translate(-105.998 -113.699)" fill="#5a5773"/><g transform="translate(42.668 37.569)"><circle cx="2.117" cy="2.117" r="2.117" fill="#fff"/><circle cx="2.117" cy="2.117" r="2.117" transform="translate(5.701)" fill="#fff"/><circle cx="2.117" cy="2.117" r="2.117" transform="translate(11.402)" fill="#fff"/></g><rect width="82.824" height="7.03" transform="translate(64.041 59.183)" fill="#007bff" opacity="0.2"/><rect width="257.793" height="108.139" transform="translate(64.041 87.371)" fill="#5a5773" opacity="0.1"/><path d="M579.571,275.167h-4.414v-8.574a17.629,17.629,0,1,0-35.257-.238v8.812h-4.4a7.369,7.369,0,0,0-7.346,7.346v35.254a7.369,7.369,0,0,0,7.346,7.346h44.075a7.365,7.365,0,0,0,7.343-7.346V282.513A7.365,7.365,0,0,0,579.571,275.167Zm-19.464,22.917V310.71a2.635,2.635,0,0,1-2.443,2.645,2.577,2.577,0,0,1-2.7-2.574v-12.7a5.864,5.864,0,1,1,5.141,0Zm9.916-22.917H545.041v-8.812a12.486,12.486,0,0,1,24.973,0Z" transform="translate(-364.589 -180.743)" opacity="0.1"/><path d="M579.571,273.167h-4.414v-8.574a17.629,17.629,0,1,0-35.257-.238v8.812h-4.4a7.369,7.369,0,0,0-7.346,7.346v35.254a7.369,7.369,0,0,0,7.346,7.346h44.075a7.365,7.365,0,0,0,7.343-7.346V280.512A7.365,7.365,0,0,0,579.571,273.167Zm-19.464,22.917V308.71a2.635,2.635,0,0,1-2.443,2.645,2.577,2.577,0,0,1-2.7-2.574v-12.7a5.864,5.864,0,1,1,5.141,0Zm9.916-22.917H545.041v-8.812a12.486,12.486,0,0,1,24.973,0Z" transform="translate(-364.589 -179.395)" fill="#007bff"/><rect width="26.093" height="6.16" transform="translate(295.741 76.963)" fill="#5a5773" opacity="0.1"/><path d="M910.511,471.722a9.28,9.28,0,0,0-.873-2.479l-3.909-5.838h.023s-.616-2.932,0-4.372-2.2-4.981-2.2-4.981a2.1,2.1,0,0,1,.551-1.984c.893-1.095-.551-4.3-.551-4.3s-.684-6.694-.753-7.717-.619-6.691-.619-6.691l-1.3-12.017-2.319-31.849-.042-.6c.287-.14.44-.228.44-.228l-.463-17.611.4-.362c3.5-3.166,11.568-10.5,11.486-10.656s-.977-12.239-1.082-15.262a18.188,18.188,0,0,0-1.388-6.248c-.2-.4-.785-3.043-1.026-4.16-.065-.306-.108-.5-.108-.5s-2.365-4.508-2.16-6.557.616-3.583-4.427-4.3a19.541,19.541,0,0,1-6.756-2.355,19.22,19.22,0,0,0-4.841-2.424s-1.414-2.606-2.4-1.723a13.681,13.681,0,0,1-.928-2.9l-.029-.182A9.6,9.6,0,0,0,889.034,308c.032-.124.059-.251.088-.375a1.059,1.059,0,0,0,.3.055c.857,0,1.385-.954,2.186-1.257.326-.127.726-.147.977-.4a.955.955,0,0,0,.215-.72,1.479,1.479,0,0,0,0-.267c0-.031,0-.063,0-.094v.033c-.218-1.186-1.137-2.238-1.036-3.443.1-1.134,1.094-2.13,1.013-3.235a1.776,1.776,0,0,0-.023-.261v.039a2.789,2.789,0,0,0-.651-1.153,3.7,3.7,0,0,0-1.342-1.127c-.453-.2-.977-.244-1.4-.482-1.244-.678-1.241-2.443-1.981-3.648a3.228,3.228,0,0,0-3.02-1.5c-.925.091-1.762.583-2.678.743a7,7,0,0,1-3.71-.652,10.215,10.215,0,0,0-3.661-.977,3.109,3.109,0,0,0-3.036,1.854c-.205.652-.1,1.352-.261,2.013a4.384,4.384,0,0,1-2.362,2.58c-.652.362-1.427.775-1.629,1.459v-.052a1,1,0,0,0-.033.384,4.108,4.108,0,0,0,.414,1.362,3.755,3.755,0,0,1-.02,2.626c-.241.619-.651,1.163-.886,1.779a3.506,3.506,0,0,0-.215.893v-.052a3.655,3.655,0,0,0,0,.417,2.935,2.935,0,0,0,.326,1.368,2.456,2.456,0,0,0,1.463,1.228c.651.15,1.059-.489,1.746-.326a2.743,2.743,0,0,1,.362.114c.023.147.046.293.072.437a9.574,9.574,0,0,0,3.3,5.593,2.1,2.1,0,0,0,.036.238h0a21.877,21.877,0,0,1,.27,3.929s-1.026-1.5-2.433,1.4a29.562,29.562,0,0,1-4.938,2.358c-1.267.241-5.766,1.808-5.766,1.808a3.968,3.968,0,0,1-2.332.753c-1.4,0-2.57,3.072-2.4,4.743s-.1,2.9-1.407,2.971-.593,2.717-.583,2.762l-.12.57c-.254,1.166-.808,3.668-1,4.059a18.244,18.244,0,0,0-1.391,6.248c-.1,3.023-.977,15.057-1.078,15.262-.068.134,5.46,5.186,9.346,8.717l.564.508-1.788,16.7a4.459,4.459,0,0,0,1.837,3.258c0,.2,0,.394-.02.6a20.888,20.888,0,0,1-.547,4.939c-.547,1.095-.411,6.965-.411,6.965s-.551,11.949-1.235,13.249a9.039,9.039,0,0,0-.619,4.561c.205.534-.687,14.884-.687,14.884l-.684,6.421s.205,6.144-.414,6.281-.961,4.372-.961,4.372-2.192,3-1.235,4.095-.14,1.573-.241,1.844-2.091,1.3-.651,5.121a1.075,1.075,0,0,0,.046.111c-1.349,1.873-5.623,7.916-5.362,8.835a2.421,2.421,0,0,0,1.14,1.368c1.007.6,2.733.883,5.479,0,4.561-1.469,4.235-2.528,4.235-2.528a1.935,1.935,0,0,1,1.922-1.844,5.4,5.4,0,0,0,3.293-1.876l-.221-.824-.3-1.14c.036-.326.267-.9,1.3-1.212,1.58-.479,1.166-3.482,1.166-3.482s-.137-3.14.547-3.551.414-5.6.414-5.6a38.477,38.477,0,0,1,1.85-6.284c1.094-2.528,2.4-17.545,2.4-17.545s.889-7.375,1.714-9.493,1.58-8.056,1.58-8.056,5.079-9.835,5.144-12.021c0,0,.652-2.049,1.3.205s2.482,7.649,2.482,7.649l1.782,6.623,2.127,9.9,1.375,8.333s-.208,3.14.326,4.235,1.3,3.616.893,4.095.821,2.733,1.166,3.209,0,10.584,0,10.584,1.577,8.6,3.841,10.1a2.776,2.776,0,0,0,.5.261c-.033.932-.065,2.179-.023,2.831a1.084,1.084,0,0,0,.072.427,11.908,11.908,0,0,0,3.02,2.117c.482,0,2.193,1.2,2.264,1.775s5.013,3.036,5.714,3.108,4.095.681,4.561-.274A1.582,1.582,0,0,0,910.511,471.722ZM898.37,348.676l.352.3s.362,2.818.619,3.662a7.076,7.076,0,0,1-.052,2.486,5.718,5.718,0,0,0,.361,1.792c.306.616-.619,1.955-.619,1.955h-.824l-.257-10.548Zm-24.507-31.494v-.062a.2.2,0,0,0-.01.062Zm-12.656,40.606a1.189,1.189,0,0,1-.052-.87,2.6,2.6,0,0,0,.173-.482,7.463,7.463,0,0,0,.189-1.3.1.1,0,0,0,0-.016,6.893,6.893,0,0,1-.049-2.469c.244-.8.616-3.662.616-3.662l.235-.2.544-.472a3.859,3.859,0,0,1,.039-.466,36.252,36.252,0,0,1,.059,5.349c-.274.27-1.271,2.932-1.029,3.036a12.457,12.457,0,0,1-.212,2.534A5.19,5.19,0,0,1,861.208,357.787Z" transform="translate(-579.797 -208.086)" fill="url(#b)"/><path d="M939.774,361.284v4.052l-8.313,4.18s-8.255-4.994-6.219-6.981c1.3-1.257,1.052-4.71.7-7.085h0c-.205-1.381-.443-2.394-.443-2.394s14.829-4.235,12.587-1.02a5.057,5.057,0,0,0-.557,3.844A17.46,17.46,0,0,0,939.774,361.284Z" transform="translate(-632.107 -249.585)" fill="#c37098"/><path d="M871.6,451.595l-1.072,13.2s-1.606-1.456-3.684-3.352c-3.854-3.515-9.326-8.541-9.261-8.675.1-.205.977-12.18,1.072-15.19a18.179,18.179,0,0,1,1.375-6.215,38.627,38.627,0,0,0,.977-4.043c.078-.362.127-.6.127-.6l1.8-.723s7.493,8.359,7.493,8.512-.511,6.574-.511,6.574l-.531.463-.231.2s-.358,2.8-.612,3.645a6.542,6.542,0,0,0,.049,2.456h0a7.586,7.586,0,0,1-.186,1.3,2.738,2.738,0,0,1-.173.479,1.2,1.2,0,0,0,.052.867,5.237,5.237,0,0,0,.56,1.072Z" transform="translate(-586.703 -300.268)" fill="#3f3d56"/><path d="M1011.008,452.788c.078.16-7.913,7.453-11.375,10.6l-1.57,1.424L997,451.615h2.753s.919-1.326.612-1.938a5.664,5.664,0,0,1-.355-1.782,7.1,7.1,0,0,0,.049-2.473c-.254-.844-.613-3.645-.613-3.645l-.349-.3-.414-.362s-.512-6.421-.512-6.574,7.493-8.512,7.493-8.512l1.785.713s.039.192.1.5c.241,1.111.818,3.74,1.016,4.14a18.172,18.172,0,0,1,1.375,6.215C1010.03,440.608,1010.9,452.583,1011.008,452.788Z" transform="translate(-680.707 -300.288)" fill="#3f3d56"/><path d="M1007.984,829.112c-.479.951-3.841.326-4.535.274s-5.593-2.518-5.662-3.095-1.766-1.766-2.241-1.766a11.918,11.918,0,0,1-2.991-2.108,1.042,1.042,0,0,1-.068-.423c-.072-1.117.068-3.994.068-3.994l9.854.544,4.789,7.2a9.294,9.294,0,0,1,.867,2.466A1.627,1.627,0,0,1,1007.984,829.112Z" transform="translate(-677.651 -564.57)" fill="#3f3d56"/><path d="M1007.984,829.112c-.479.951-3.841.326-4.535.274s-5.593-2.518-5.662-3.095-1.766-1.766-2.241-1.766a11.918,11.918,0,0,1-2.991-2.108,1.042,1.042,0,0,1-.068-.423c-.072-1.117.068-3.994.068-3.994l9.854.544,4.789,7.2a9.294,9.294,0,0,1,.867,2.466A1.627,1.627,0,0,1,1007.984,829.112Z" transform="translate(-677.651 -564.57)" opacity="0.1"/><path d="M1008.024,837.378c-.479.951-3.841.326-4.535.274s-5.593-2.518-5.662-3.095-1.766-1.766-2.241-1.766a11.908,11.908,0,0,1-2.99-2.108,1.038,1.038,0,0,1-.068-.423l3.192,2.02a13.473,13.473,0,0,1,2.583,2.075c.544.772,4.831,2.378,5.186,2.411a24.415,24.415,0,0,1,4.616-.287A1.627,1.627,0,0,1,1008.024,837.378Z" transform="translate(-677.691 -572.836)" opacity="0.1"/><path d="M864.174,823.9a5.331,5.331,0,0,1-3.258,1.867,1.919,1.919,0,0,0-1.9,1.834s.326,1.055-4.18,2.518c-2.72.876-4.43.6-5.427,0a2.424,2.424,0,0,1-1.13-1.362c-.306-1.085,5.707-9.343,5.707-9.343l5.473-.326,3.909,1.766.6,2.238Z" transform="translate(-580.424 -565.305)" fill="#3f3d56"/><path d="M864.174,823.9a5.331,5.331,0,0,1-3.258,1.867,1.919,1.919,0,0,0-1.9,1.834s.326,1.055-4.18,2.518c-2.72.876-4.43.6-5.427,0a2.424,2.424,0,0,1-1.13-1.362c-.306-1.085,5.707-9.343,5.707-9.343l5.473-.326,3.909,1.766.6,2.238Z" transform="translate(-580.424 -565.305)" opacity="0.1"/><path d="M866.537,832.161a5.332,5.332,0,0,1-3.258,1.867,1.919,1.919,0,0,0-1.9,1.834s.326,1.055-4.18,2.518c-2.72.876-4.43.6-5.427,0,2.564-.267,8.229-1.886,8.8-2.446.681-.681,1.531-2.551,2.108-2.583a22.671,22.671,0,0,0,3.658-2.01Z" transform="translate(-582.787 -573.564)" fill="none"/><path d="M866.537,832.161a5.332,5.332,0,0,1-3.258,1.867,1.919,1.919,0,0,0-1.9,1.834s.326,1.055-4.18,2.518c-2.72.876-4.43.6-5.427,0,2.564-.267,8.229-1.886,8.8-2.446.681-.681,1.531-2.551,2.108-2.583a22.671,22.671,0,0,0,3.658-2.01Z" transform="translate(-582.787 -573.564)" opacity="0.1"/><path d="M915.924,650.1c-.612,1.427,0,4.349,0,4.349s-9.121.476-11.349-1.02-3.8-10.059-3.8-10.059.326-10.056,0-10.532-1.564-2.717-1.156-3.193-.326-2.99-.883-4.078-.326-4.212-.326-4.212l-1.362-8.294-2.1-9.851-1.788-6.593s-1.834-5.368-2.456-7.61-1.28-.205-1.28-.205c-.065,2.176-5.095,11.962-5.095,11.962a53.831,53.831,0,0,1-1.564,8.017c-.814,2.1-1.7,9.447-1.7,9.447s-1.3,14.949-2.378,17.464a38.531,38.531,0,0,0-1.814,6.251s.274,5.167-.407,5.574-.57,3.534-.57,3.534.407,2.987-1.156,3.466-1.3,1.5-1.3,1.5-8.7,1.427-10.124-2.381.544-4.821.651-5.095,1.192-.746.241-1.837,1.222-4.075,1.222-4.075.342-4.212.951-4.349.41-6.251.41-6.251l.678-6.388s.886-14.272.681-14.816a9.05,9.05,0,0,1,.612-4.561c.681-1.3,1.222-13.187,1.222-13.187s-.137-5.841.407-6.929a20.2,20.2,0,0,0,.541-4.916c.059-1.476.072-2.7.072-2.7l7.61-2.854,9.773-3.124,8.222,3.942,12.03,2.31.15,2.075,2.3,31.7,1.3,11.959s.544,5.639.612,6.659.746,7.681.746,7.681,1.427,3.192.544,4.28a2.063,2.063,0,0,0-.544,1.954S916.537,648.67,915.924,650.1Z" transform="translate(-590.214 -399.078)" fill="#3f3d56"/><path d="M939.307,352.037a5.057,5.057,0,0,0-.557,3.844,9.558,9.558,0,0,1-11.587-.433h0c-.205-1.381-.443-2.394-.443-2.394S941.549,348.825,939.307,352.037Z" transform="translate(-633.321 -249.587)" opacity="0.1"/><path d="M936.49,322.015a9.5,9.5,0,1,1-2.782-6.763A9.545,9.545,0,0,1,936.49,322.015Z" transform="translate(-627.037 -223.721)" fill="#c37098"/><path d="M906.531,350.063,903.4,405.751l-16.988-3.567L883.05,379.86l3.333-29.97,2.508.323,4.424.564,4.381.27,4.75-.528Z" transform="translate(-595.091 -235.908)" opacity="0.1"/><path d="M906.531,351.319,903.4,407.008l-16.988-3.567-3.365-22.324,3.333-29.967,2.508.319,4.424.564,4.381.27,4.75-.528Z" transform="translate(-595.091 -236.758)" fill="#007bff"/><path d="M939.23,396.3l6.118.205-1.72,2.407s.12,4.864.938,6.258.577,22.933.577,22.933l-1.629,3.091-2.785-3.466.036-28.439Z" transform="translate(-641.756 -280.243)" fill="#3f3d56"/><path d="M939.23,396.3l6.118.205-1.72,2.407s.12,4.864.938,6.258.577,22.933.577,22.933l-1.629,3.091-2.785-3.466.036-28.439Z" transform="translate(-641.756 -280.243)" opacity="0.1"/><path d="M929.857,336.86l-5.707,6.32,3.261,3.4,5.4-5.268Z" transform="translate(-622.803 -227.123)" opacity="0.1"/><path d="M929.857,335.61l-5.707,6.32,3.261,3.4,5.4-5.268Z" transform="translate(-622.803 -226.28)" fill="#007bff"/><path d="M903.663,343.366l-5.779-5.776-.544,3.023,2.652,6.626Z" transform="translate(-604.726 -227.615)" opacity="0.1"/><path d="M904.29,342.116l-5.776-5.776-.544,3.023,2.652,6.626Z" transform="translate(-605.151 -226.772)" fill="#007bff"/><path d="M925.643,580.906a28.2,28.2,0,0,1-8.8,2.544c-5.606.714-9.274-6.421-9.274-6.421l-2.14,2.785c-.681,2.958-11.043,3.7-15.255,2.583a6.739,6.739,0,0,1-2.417-1.143c.059-1.476.072-2.7.072-2.7l7.61-2.854,9.773-3.124,8.222,3.942,12.03,2.31Z" transform="translate(-607.053 -399.098)" opacity="0.1"/><path d="M933.487,391.363l-3.124,55.685-16.992-3.567L910,421.16l3.329-29.97,2.508.326a30.5,30.5,0,0,1-.368,3.258c-.407,1.906,2.108,15.428,2.108,15.428s4.779,15.164,6.929,12.978,5.212-13.727,5.212-13.727c2.075-4.28.036-16.288-.117-16.529a4.852,4.852,0,0,1-.2-1.091Z" transform="translate(-622.048 -276.798)" opacity="0.1"/><path d="M999.486,510.9l.143,5.456-1.57,1.424L997,504.57h2.345Z" transform="translate(-680.707 -353.243)" opacity="0.1"/><path d="M890.859,493.1h0a7.58,7.58,0,0,1-.186,1.3c0-.12,0-.189-.026-.2C890.549,494.178,890.667,493.68,890.859,493.1Z" transform="translate(-608.976 -345.509)" opacity="0.1"/><path d="M890.766,502.352l-1.072,13.2s-1.606-1.456-3.684-3.352l.248-2.339s.876-5.746,1.2-8.58a5.238,5.238,0,0,0,.56,1.072Z" transform="translate(-605.873 -351.025)" opacity="0.1"/><path d="M887.806,375.414s-1.016-1.5-2.411,1.391a29.152,29.152,0,0,1-4.886,2.345c-1.251.238-5.7,1.8-5.7,1.8a3.935,3.935,0,0,1-2.31.746c-1.394,0-2.551,3.059-2.381,4.724s-.1,2.889-1.391,2.958-.58,2.749-.58,2.749l8.6,9.854s.544,9.072.274,9.346-1.257,2.932-1.02,3.023-1.3,10.125-1.3,10.125l-2.072,19.471s0,3.258,4.215,4.382,14.584.381,15.252-2.577l2.14-2.789s3.668,7.137,9.274,6.424a26.961,26.961,0,0,0,9.177-2.753l-.612-23.334-.407-16.819,8.753-14.382s-2.345-4.486-2.14-6.515.609-3.567-4.385-4.28c0,0-4.212-.629-6.694-2.346a19.138,19.138,0,0,0-4.789-2.411s-1.4-2.606-2.375-1.713a32.015,32.015,0,0,1,.9,4.235,14.014,14.014,0,0,0,.306,3.3c.153.257,2.192,12.249.117,16.529,0,0-3.046,11.542-5.212,13.728s-6.929-12.978-6.929-12.978-2.515-13.526-2.108-15.428S887.806,375.414,887.806,375.414Z" transform="translate(-593.697 -265.644)" fill="#3f3d56"/><circle cx="1.495" cy="1.495" r="1.495" transform="translate(299.885 151.327)" fill="#3f3d56"/><circle cx="1.495" cy="1.495" r="1.495" transform="translate(299.885 158.377)" fill="#3f3d56"/><circle cx="1.495" cy="1.495" r="1.495" transform="translate(299.885 151.327)" opacity="0.1"/><circle cx="1.495" cy="1.495" r="1.495" transform="translate(299.885 158.377)" opacity="0.1"/><path d="M992.47,804.34s6.137.476,6.747.951S992.47,804.34,992.47,804.34Z" transform="translate(-677.653 -555.36)" stroke="#007bff" stroke-miterlimit="10" stroke-width="1" opacity="0.1"/><path d="M880.3,789.53s1.3,1.629.749,2.378S880.3,789.53,880.3,789.53Z" transform="translate(-602.023 -545.375)" stroke="#007bff" stroke-miterlimit="10" stroke-width="1" opacity="0.1"/><path d="M885.1,805.737s2.378-1.564,3.329-.524S885.1,805.737,885.1,805.737Z" transform="translate(-605.259 -555.708)" stroke="#007bff" stroke-miterlimit="10" stroke-width="1" opacity="0.1"/><path d="M936.5,322.021a9.5,9.5,0,0,1-.306,2.414,1.085,1.085,0,0,1-.632-1.062c.042-.388.3-.743.244-1.127-.081-.593-.8-.834-1.176-1.3a3.031,3.031,0,0,1-.326-2.124c.039-.733-.147-1.629-.834-1.88-.205-.075-.43-.081-.629-.166-.541-.228-.707-.9-1.068-1.362-.723-.932-2.16-.912-3.258-.469a15.494,15.494,0,0,1-1.466.612,1.915,1.915,0,0,1-1.534-.114c-.215-.137-.388-.326-.609-.463a2.1,2.1,0,0,0-2.339.57,8.085,8.085,0,0,1-1.955,1.684c-.362.163-.808.261-.977.612a1.283,1.283,0,0,0-.1.609,18.216,18.216,0,0,1-.114,3.8c-.169.8-.73,1.7-1.541,1.606a1.514,1.514,0,0,1-.3-.075,9.545,9.545,0,1,1,18.927-1.766Z" transform="translate(-627.05 -223.728)" opacity="0.1"/><path d="M909.278,309.445c.244.055.476.182.726.215.811.1,1.371-.808,1.541-1.606a17.571,17.571,0,0,0,.117-3.8,1.241,1.241,0,0,1,.1-.609c.186-.352.632-.45.977-.612a8.434,8.434,0,0,0,1.955-1.684,2.081,2.081,0,0,1,2.336-.57c.218.13.394.326.609.463a1.955,1.955,0,0,0,1.538.114c.505-.15.977-.414,1.463-.612a2.83,2.83,0,0,1,3.258.466c.362.466.528,1.134,1.068,1.362.2.085.424.095.629.169.687.257.863,1.147.834,1.88a3.158,3.158,0,0,0,.326,2.124c.378.463,1.094.7,1.176,1.3.052.384-.2.743-.244,1.127a1.082,1.082,0,0,0,1.02,1.153c.847,0,1.371-.948,2.163-1.251a2.572,2.572,0,0,0,.977-.4,1.078,1.078,0,0,0,.2-.883c-.159-1.248-1.16-2.332-1.052-3.583.1-1.2,1.212-2.244.977-3.424a2.774,2.774,0,0,0-.651-1.163,3.766,3.766,0,0,0-1.329-1.124,13.679,13.679,0,0,1-1.391-.479c-1.231-.674-1.228-2.433-1.955-3.632a3.189,3.189,0,0,0-2.971-1.479c-.915.091-1.746.577-2.652.739a6.874,6.874,0,0,1-3.675-.651,10.05,10.05,0,0,0-3.626-.977,3.092,3.092,0,0,0-3.01,1.844c-.2.652-.1,1.349-.257,2a4.373,4.373,0,0,1-2.339,2.567c-.713.4-1.57.853-1.655,1.665a3.431,3.431,0,0,0,.407,1.476,3.757,3.757,0,0,1-.019,2.606c-.238.616-.635,1.156-.876,1.769a3.176,3.176,0,0,0,.085,2.606,2.43,2.43,0,0,0,1.489,1.222C908.19,309.93,908.594,309.3,909.278,309.445Z" transform="translate(-619.173 -209.933)" fill="#3f3d56"/><g transform="translate(286.562 89.81)" opacity="0.1"><path d="M911.543,335.9c-.169.8-.733,1.7-1.544,1.606-.251-.033-.479-.16-.726-.215-.681-.15-1.085.489-1.727.326a2.437,2.437,0,0,1-1.492-1.222,2.821,2.821,0,0,1-.3-1.065,2.975,2.975,0,0,0,.3,1.678,2.437,2.437,0,0,0,1.492,1.222c.651.15,1.046-.489,1.727-.326a7.369,7.369,0,0,0,.726.212c.811.1,1.375-.8,1.544-1.6a9.408,9.408,0,0,0,.156-2.14A8.013,8.013,0,0,1,911.543,335.9Z" transform="translate(-905.733 -328.297)"/><path d="M908.568,318.613a3.749,3.749,0,0,0-.215-1.573,8.316,8.316,0,0,1-.375-1.029,1.477,1.477,0,0,0-.033.166,3.491,3.491,0,0,0,.407,1.476A3.731,3.731,0,0,1,908.568,318.613Z" transform="translate(-907.22 -315.918)"/><path d="M984.219,318.73c-.153.925-.9,1.795-.977,2.769a2.312,2.312,0,0,0,0,.5C983.4,320.864,984.412,319.857,984.219,318.73Z" transform="translate(-957.984 -317.752)"/><path d="M977.434,339.83a.765.765,0,0,1-.186.365c-.241.257-.651.277-.977.4-.792.3-1.3,1.261-2.163,1.251a1.091,1.091,0,0,1-.977-.756,1.658,1.658,0,0,0-.046.215,1.081,1.081,0,0,0,1.02,1.15c.85,0,1.371-.948,2.163-1.248.326-.127.723-.147.977-.4a1.079,1.079,0,0,0,.2-.883C977.444,339.885,977.438,339.859,977.434,339.83Z" transform="translate(-951.143 -331.978)"/><path d="M970.706,334.092c-.081-.593-.8-.834-1.176-1.3a1.786,1.786,0,0,1-.358-1.068,2.4,2.4,0,0,0,.358,1.681c.375.456.945.652,1.127,1.121A1.046,1.046,0,0,0,970.706,334.092Z" transform="translate(-948.5 -326.51)"/><path d="M938.638,319.9c.026-.733-.15-1.629-.837-1.88-.2-.075-.427-.085-.625-.166-.541-.228-.71-.9-1.069-1.362a2.822,2.822,0,0,0-3.258-.469c-.489.2-.954.463-1.463.612a1.915,1.915,0,0,1-1.534-.114c-.215-.137-.391-.326-.609-.463a2.1,2.1,0,0,0-2.339.57,8.1,8.1,0,0,1-1.954,1.684c-.365.163-.808.261-1,.612a1.281,1.281,0,0,0-.1.609v.381a.925.925,0,0,1,.094-.378c.189-.352.632-.45,1-.612a8.438,8.438,0,0,0,1.955-1.684,2.085,2.085,0,0,1,2.339-.57c.218.13.394.326.609.459a1.9,1.9,0,0,0,1.534.114,15.069,15.069,0,0,0,1.463-.609,2.823,2.823,0,0,1,3.258.466c.358.463.528,1.134,1.068,1.362.2.085.424.095.625.169a1.563,1.563,0,0,1,.827,1.453Z" transform="translate(-917.947 -315.727)"/></g><g transform="translate(291.209 94.832)" opacity="0.1"><path d="M920,333.7a2.5,2.5,0,0,1,1.883-2.336,7.818,7.818,0,0,1,4.391.2c3.091,1.023-.391,4.7-.391,4.7s-2.316,2.28-4.476.687A3.384,3.384,0,0,1,920.145,335,4.984,4.984,0,0,1,920,333.7Z" transform="translate(-919.997 -331.144)"/><path d="M956.536,333.7a2.5,2.5,0,0,0-1.886-2.336,7.818,7.818,0,0,0-4.388.2c-3.092,1.023.391,4.7.391,4.7s2.313,2.28,4.476.687a3.386,3.386,0,0,0,1.26-1.955A4.993,4.993,0,0,0,956.536,333.7Z" transform="translate(-939.54 -331.145)"/><path d="M910.5,291.419v.153h5.645v-.182Z" transform="translate(-904.808 -291.297)"/><path d="M942.676,334.673h.179v-.518a1.483,1.483,0,0,1,1.525,0v.463h.326v-.3h-.16s.065-.629-1-.528c0,0-.853-.081-.834.459h-.2Z" transform="translate(-935.183 -332.919)"/></g><path d="M920,333.056a2.5,2.5,0,0,1,1.883-2.336,7.861,7.861,0,0,1,4.391.2c3.091,1.026-.391,4.7-.391,4.7s-2.316,2.28-4.476.687a3.365,3.365,0,0,1-1.261-1.955A4.953,4.953,0,0,1,920,333.056Z" transform="translate(-628.788 -235.877)" fill="#007bff"/><path d="M956.536,333.056a2.5,2.5,0,0,0-1.886-2.336,7.847,7.847,0,0,0-4.388.2c-3.091,1.026.391,4.7.391,4.7s2.313,2.28,4.476.687a3.365,3.365,0,0,0,1.261-1.955A4.955,4.955,0,0,0,956.536,333.056Z" transform="translate(-648.331 -235.877)" fill="#007bff"/><path d="M910.5,290.789v.156h5.645v-.186Z" transform="translate(-613.599 -196.04)" fill="#007bff"/><path d="M942.676,334.045h.179v-.518a1.492,1.492,0,0,1,1.525,0v.466h.326v-.306h-.16s.065-.625-1-.528c0,0-.853-.078-.834.459h-.2Z" transform="translate(-643.974 -237.663)" fill="#007bff"/><rect width="1.85" height="41.665" transform="translate(38.56 148.936)" fill="#535461"/><path d="M133.829,618.921l-.117,1.876-.163,2.648-.068,1.1-.163,2.652-.072,1.1-.163,2.648-1.867,30.123a5.1,5.1,0,0,1-5.092,4.789h-9.7a5.1,5.1,0,0,1-5.088-4.788l-1.876-30.123-.163-2.648-.068-1.1-.16-2.658-.068-1.1-.163-2.648-.117-1.876a2.642,2.642,0,0,1,2.639-2.8h19.835a2.639,2.639,0,0,1,2.635,2.811Z" transform="translate(-81.789 -428.448)" fill="#3f3d56"/><path d="M106.988,590.46l-.163,2.648H82.273l-.163-2.648Z" transform="translate(-55.065 -398.11)" fill="#9d9cb5"/><path d="M107.236,601.98l-.163,2.652H82.986l-.166-2.652Z" transform="translate(-55.544 -405.877)" fill="#9d9cb5"/><path d="M107.487,613.51l-.163,2.649H83.706l-.166-2.649Z" transform="translate(-56.029 -413.651)" fill="#9d9cb5"/><path d="M51.19,528.112c10.776,7.8,15.265,19.992,15.265,19.992s-12.988-.446-23.78-8.242S27.41,519.87,27.41,519.87,40.411,520.316,51.19,528.112Z" transform="translate(-26.97 -363.559)" fill="#007bff"/><path d="M27.46,519.87s13.48,7.492,17.8,13.682,21.226,14.555,21.226,14.555" transform="translate(-27.004 -363.559)" fill="none" stroke="#535461" stroke-miterlimit="10" stroke-width="2"/><path d="M94.993,487.716a26.121,26.121,0,0,1,8.31,10.88,26.128,26.128,0,0,1-12.936-4.486,26.126,26.126,0,0,1-8.307-10.88A25.922,25.922,0,0,1,94.993,487.716Z" transform="translate(-63.817 -338.855)" fill="#007bff"/><path d="M82.06,483.18s7.336,4.072,9.688,7.444,11.555,7.922,11.555,7.922" transform="translate(-63.817 -338.821)" fill="none" stroke="#535461" stroke-miterlimit="10" stroke-width="2"/><path d="M156.544,509.167a36.116,36.116,0,0,0-8.164,17.08,32.831,32.831,0,0,0,24.4-26.817A36.12,36.12,0,0,0,156.544,509.167Z" transform="translate(-108.533 -349.777)" fill="#007bff"/><path d="M172.779,499.43s-8.776,7.59-11.007,12.822S148.38,526.26,148.38,526.26" transform="translate(-108.533 -349.777)" fill="none" stroke="#535461" stroke-miterlimit="10" stroke-width="2"/></g></svg>